<mxfile host="Electron" agent="Mozilla/5.0 (X11; Linux x86_64) AppleWebKit/537.36 (KHTML, like Gecko) draw.io/27.0.9 Chrome/134.0.6998.205 Electron/35.4.0 Safari/537.36" version="27.0.9">
  <diagram name="Page-1" id="rjb1xXV5eojCXOY4e6q8">
    <mxGraphModel dx="1426" dy="843" grid="1" gridSize="10" guides="1" tooltips="1" connect="1" arrows="1" fold="1" page="1" pageScale="1" pageWidth="850" pageHeight="1100" math="0" shadow="0">
      <root>
        <mxCell id="0" />
        <mxCell id="1" parent="0" />
        <mxCell id="46TvxOgRQQvL3XD7Ghu--1" style="edgeStyle=orthogonalEdgeStyle;rounded=0;orthogonalLoop=1;jettySize=auto;html=1;" edge="1" parent="1" source="46TvxOgRQQvL3XD7Ghu--2" target="46TvxOgRQQvL3XD7Ghu--4">
          <mxGeometry relative="1" as="geometry" />
        </mxCell>
        <mxCell id="46TvxOgRQQvL3XD7Ghu--2" value="&lt;div&gt;&lt;span style=&quot;background-color: transparent; color: light-dark(rgb(0, 0, 0), rgb(255, 255, 255));&quot;&gt;/suip-data&lt;/span&gt;&lt;/div&gt;" style="whiteSpace=wrap;html=1;rounded=0;" vertex="1" parent="1">
          <mxGeometry x="240" y="240" width="120" height="40" as="geometry" />
        </mxCell>
        <mxCell id="46TvxOgRQQvL3XD7Ghu--3" style="edgeStyle=orthogonalEdgeStyle;rounded=0;orthogonalLoop=1;jettySize=auto;html=1;" edge="1" parent="1" source="46TvxOgRQQvL3XD7Ghu--4" target="46TvxOgRQQvL3XD7Ghu--8">
          <mxGeometry relative="1" as="geometry" />
        </mxCell>
        <mxCell id="46TvxOgRQQvL3XD7Ghu--4" value="GET" style="whiteSpace=wrap;html=1;rounded=0;" vertex="1" parent="1">
          <mxGeometry x="240" y="320" width="120" height="40" as="geometry" />
        </mxCell>
        <mxCell id="46TvxOgRQQvL3XD7Ghu--5" style="edgeStyle=orthogonalEdgeStyle;rounded=0;orthogonalLoop=1;jettySize=auto;html=1;" edge="1" parent="1" source="46TvxOgRQQvL3XD7Ghu--6" target="46TvxOgRQQvL3XD7Ghu--45">
          <mxGeometry relative="1" as="geometry" />
        </mxCell>
        <mxCell id="46TvxOgRQQvL3XD7Ghu--6" value="POST" style="whiteSpace=wrap;html=1;rounded=0;" vertex="1" parent="1">
          <mxGeometry x="440" y="320" width="120" height="40" as="geometry" />
        </mxCell>
        <mxCell id="46TvxOgRQQvL3XD7Ghu--7" style="edgeStyle=orthogonalEdgeStyle;rounded=0;orthogonalLoop=1;jettySize=auto;html=1;" edge="1" parent="1" source="46TvxOgRQQvL3XD7Ghu--8" target="46TvxOgRQQvL3XD7Ghu--9">
          <mxGeometry relative="1" as="geometry" />
        </mxCell>
        <mxCell id="46TvxOgRQQvL3XD7Ghu--8" value="&lt;div&gt;&lt;span style=&quot;background-color: transparent; color: light-dark(rgb(0, 0, 0), rgb(255, 255, 255));&quot;&gt;database&lt;/span&gt;&lt;/div&gt;" style="whiteSpace=wrap;html=1;" vertex="1" parent="1">
          <mxGeometry x="240" y="480" width="120" height="40" as="geometry" />
        </mxCell>
        <mxCell id="46TvxOgRQQvL3XD7Ghu--9" value="file_metadata" style="shape=table;startSize=30;container=1;collapsible=1;childLayout=tableLayout;fixedRows=1;rowLines=0;fontStyle=1;align=center;resizeLast=1;html=1;" vertex="1" parent="1">
          <mxGeometry x="200" y="600" width="200" height="210" as="geometry" />
        </mxCell>
        <mxCell id="46TvxOgRQQvL3XD7Ghu--10" value="" style="shape=tableRow;horizontal=0;startSize=0;swimlaneHead=0;swimlaneBody=0;fillColor=none;collapsible=0;dropTarget=0;points=[[0,0.5],[1,0.5]];portConstraint=eastwest;top=0;left=0;right=0;bottom=1;" vertex="1" parent="46TvxOgRQQvL3XD7Ghu--9">
          <mxGeometry y="30" width="200" height="30" as="geometry" />
        </mxCell>
        <mxCell id="46TvxOgRQQvL3XD7Ghu--11" value="PK" style="shape=partialRectangle;connectable=0;fillColor=none;top=0;left=0;bottom=0;right=0;fontStyle=1;overflow=hidden;whiteSpace=wrap;html=1;" vertex="1" parent="46TvxOgRQQvL3XD7Ghu--10">
          <mxGeometry width="30" height="30" as="geometry">
            <mxRectangle width="30" height="30" as="alternateBounds" />
          </mxGeometry>
        </mxCell>
        <mxCell id="46TvxOgRQQvL3XD7Ghu--12" value="UUID" style="shape=partialRectangle;connectable=0;fillColor=none;top=0;left=0;bottom=0;right=0;align=left;spacingLeft=6;fontStyle=5;overflow=hidden;whiteSpace=wrap;html=1;" vertex="1" parent="46TvxOgRQQvL3XD7Ghu--10">
          <mxGeometry x="30" width="170" height="30" as="geometry">
            <mxRectangle width="170" height="30" as="alternateBounds" />
          </mxGeometry>
        </mxCell>
        <mxCell id="46TvxOgRQQvL3XD7Ghu--13" style="shape=tableRow;horizontal=0;startSize=0;swimlaneHead=0;swimlaneBody=0;fillColor=none;collapsible=0;dropTarget=0;points=[[0,0.5],[1,0.5]];portConstraint=eastwest;top=0;left=0;right=0;bottom=0;" vertex="1" parent="46TvxOgRQQvL3XD7Ghu--9">
          <mxGeometry y="60" width="200" height="30" as="geometry" />
        </mxCell>
        <mxCell id="46TvxOgRQQvL3XD7Ghu--14" value="&lt;b&gt;NN&lt;/b&gt;" style="shape=partialRectangle;connectable=0;fillColor=none;top=0;left=0;bottom=0;right=0;editable=1;overflow=hidden;whiteSpace=wrap;html=1;" vertex="1" parent="46TvxOgRQQvL3XD7Ghu--13">
          <mxGeometry width="30" height="30" as="geometry">
            <mxRectangle width="30" height="30" as="alternateBounds" />
          </mxGeometry>
        </mxCell>
        <mxCell id="46TvxOgRQQvL3XD7Ghu--15" value="name" style="shape=partialRectangle;connectable=0;fillColor=none;top=0;left=0;bottom=0;right=0;align=left;spacingLeft=6;overflow=hidden;whiteSpace=wrap;html=1;" vertex="1" parent="46TvxOgRQQvL3XD7Ghu--13">
          <mxGeometry x="30" width="170" height="30" as="geometry">
            <mxRectangle width="170" height="30" as="alternateBounds" />
          </mxGeometry>
        </mxCell>
        <mxCell id="46TvxOgRQQvL3XD7Ghu--16" style="shape=tableRow;horizontal=0;startSize=0;swimlaneHead=0;swimlaneBody=0;fillColor=none;collapsible=0;dropTarget=0;points=[[0,0.5],[1,0.5]];portConstraint=eastwest;top=0;left=0;right=0;bottom=0;" vertex="1" parent="46TvxOgRQQvL3XD7Ghu--9">
          <mxGeometry y="90" width="200" height="30" as="geometry" />
        </mxCell>
        <mxCell id="46TvxOgRQQvL3XD7Ghu--17" value="&lt;b&gt;NN&lt;/b&gt;" style="shape=partialRectangle;connectable=0;fillColor=none;top=0;left=0;bottom=0;right=0;editable=1;overflow=hidden;whiteSpace=wrap;html=1;" vertex="1" parent="46TvxOgRQQvL3XD7Ghu--16">
          <mxGeometry width="30" height="30" as="geometry">
            <mxRectangle width="30" height="30" as="alternateBounds" />
          </mxGeometry>
        </mxCell>
        <mxCell id="46TvxOgRQQvL3XD7Ghu--18" value="fs_path" style="shape=partialRectangle;connectable=0;fillColor=none;top=0;left=0;bottom=0;right=0;align=left;spacingLeft=6;overflow=hidden;whiteSpace=wrap;html=1;" vertex="1" parent="46TvxOgRQQvL3XD7Ghu--16">
          <mxGeometry x="30" width="170" height="30" as="geometry">
            <mxRectangle width="170" height="30" as="alternateBounds" />
          </mxGeometry>
        </mxCell>
        <mxCell id="46TvxOgRQQvL3XD7Ghu--19" style="shape=tableRow;horizontal=0;startSize=0;swimlaneHead=0;swimlaneBody=0;fillColor=none;collapsible=0;dropTarget=0;points=[[0,0.5],[1,0.5]];portConstraint=eastwest;top=0;left=0;right=0;bottom=0;" vertex="1" parent="46TvxOgRQQvL3XD7Ghu--9">
          <mxGeometry y="120" width="200" height="30" as="geometry" />
        </mxCell>
        <mxCell id="46TvxOgRQQvL3XD7Ghu--20" value="&lt;b&gt;NN&lt;/b&gt;" style="shape=partialRectangle;connectable=0;fillColor=none;top=0;left=0;bottom=0;right=0;editable=1;overflow=hidden;whiteSpace=wrap;html=1;" vertex="1" parent="46TvxOgRQQvL3XD7Ghu--19">
          <mxGeometry width="30" height="30" as="geometry">
            <mxRectangle width="30" height="30" as="alternateBounds" />
          </mxGeometry>
        </mxCell>
        <mxCell id="46TvxOgRQQvL3XD7Ghu--21" value="available_metadata :: JSON" style="shape=partialRectangle;connectable=0;fillColor=none;top=0;left=0;bottom=0;right=0;align=left;spacingLeft=6;overflow=hidden;whiteSpace=wrap;html=1;" vertex="1" parent="46TvxOgRQQvL3XD7Ghu--19">
          <mxGeometry x="30" width="170" height="30" as="geometry">
            <mxRectangle width="170" height="30" as="alternateBounds" />
          </mxGeometry>
        </mxCell>
        <mxCell id="46TvxOgRQQvL3XD7Ghu--22" value="" style="shape=tableRow;horizontal=0;startSize=0;swimlaneHead=0;swimlaneBody=0;fillColor=none;collapsible=0;dropTarget=0;points=[[0,0.5],[1,0.5]];portConstraint=eastwest;top=0;left=0;right=0;bottom=0;" vertex="1" parent="46TvxOgRQQvL3XD7Ghu--9">
          <mxGeometry y="150" width="200" height="30" as="geometry" />
        </mxCell>
        <mxCell id="46TvxOgRQQvL3XD7Ghu--23" value="&lt;b&gt;NN&lt;/b&gt;" style="shape=partialRectangle;connectable=0;fillColor=none;top=0;left=0;bottom=0;right=0;editable=1;overflow=hidden;whiteSpace=wrap;html=1;" vertex="1" parent="46TvxOgRQQvL3XD7Ghu--22">
          <mxGeometry width="30" height="30" as="geometry">
            <mxRectangle width="30" height="30" as="alternateBounds" />
          </mxGeometry>
        </mxCell>
        <mxCell id="46TvxOgRQQvL3XD7Ghu--24" value="created_at = now()" style="shape=partialRectangle;connectable=0;fillColor=none;top=0;left=0;bottom=0;right=0;align=left;spacingLeft=6;overflow=hidden;whiteSpace=wrap;html=1;" vertex="1" parent="46TvxOgRQQvL3XD7Ghu--22">
          <mxGeometry x="30" width="170" height="30" as="geometry">
            <mxRectangle width="170" height="30" as="alternateBounds" />
          </mxGeometry>
        </mxCell>
        <mxCell id="46TvxOgRQQvL3XD7Ghu--25" style="shape=tableRow;horizontal=0;startSize=0;swimlaneHead=0;swimlaneBody=0;fillColor=none;collapsible=0;dropTarget=0;points=[[0,0.5],[1,0.5]];portConstraint=eastwest;top=0;left=0;right=0;bottom=0;" vertex="1" parent="46TvxOgRQQvL3XD7Ghu--9">
          <mxGeometry y="180" width="200" height="30" as="geometry" />
        </mxCell>
        <mxCell id="46TvxOgRQQvL3XD7Ghu--26" value="&lt;b&gt;NN&lt;/b&gt;" style="shape=partialRectangle;connectable=0;fillColor=none;top=0;left=0;bottom=0;right=0;editable=1;overflow=hidden;whiteSpace=wrap;html=1;" vertex="1" parent="46TvxOgRQQvL3XD7Ghu--25">
          <mxGeometry width="30" height="30" as="geometry">
            <mxRectangle width="30" height="30" as="alternateBounds" />
          </mxGeometry>
        </mxCell>
        <mxCell id="46TvxOgRQQvL3XD7Ghu--27" value="updated_at = now()" style="shape=partialRectangle;connectable=0;fillColor=none;top=0;left=0;bottom=0;right=0;align=left;spacingLeft=6;overflow=hidden;whiteSpace=wrap;html=1;" vertex="1" parent="46TvxOgRQQvL3XD7Ghu--25">
          <mxGeometry x="30" width="170" height="30" as="geometry">
            <mxRectangle width="170" height="30" as="alternateBounds" />
          </mxGeometry>
        </mxCell>
        <mxCell id="46TvxOgRQQvL3XD7Ghu--28" style="edgeStyle=orthogonalEdgeStyle;rounded=0;orthogonalLoop=1;jettySize=auto;html=1;" edge="1" parent="1" source="46TvxOgRQQvL3XD7Ghu--29" target="46TvxOgRQQvL3XD7Ghu--4">
          <mxGeometry relative="1" as="geometry" />
        </mxCell>
        <mxCell id="46TvxOgRQQvL3XD7Ghu--29" value="RequestQuery" style="swimlane;fontStyle=0;childLayout=stackLayout;horizontal=1;startSize=26;fillColor=none;horizontalStack=0;resizeParent=1;resizeParentMax=0;resizeLast=0;collapsible=1;marginBottom=0;html=1;" vertex="1" parent="1">
          <mxGeometry x="40" y="314" width="120" height="52" as="geometry" />
        </mxCell>
        <mxCell id="46TvxOgRQQvL3XD7Ghu--30" value="Ключ=Значение" style="text;strokeColor=none;fillColor=none;align=left;verticalAlign=top;spacingLeft=4;spacingRight=4;overflow=hidden;rotatable=0;points=[[0,0.5],[1,0.5]];portConstraint=eastwest;whiteSpace=wrap;html=1;" vertex="1" parent="46TvxOgRQQvL3XD7Ghu--29">
          <mxGeometry y="26" width="120" height="26" as="geometry" />
        </mxCell>
        <mxCell id="46TvxOgRQQvL3XD7Ghu--31" style="edgeStyle=orthogonalEdgeStyle;rounded=0;orthogonalLoop=1;jettySize=auto;html=1;" edge="1" parent="1" source="46TvxOgRQQvL3XD7Ghu--32" target="46TvxOgRQQvL3XD7Ghu--6">
          <mxGeometry relative="1" as="geometry" />
        </mxCell>
        <mxCell id="46TvxOgRQQvL3XD7Ghu--32" value="RequestBody" style="swimlane;fontStyle=0;childLayout=stackLayout;horizontal=1;startSize=26;fillColor=none;horizontalStack=0;resizeParent=1;resizeParentMax=0;resizeLast=0;collapsible=1;marginBottom=0;html=1;" vertex="1" parent="1">
          <mxGeometry x="640" y="314" width="120" height="52" as="geometry" />
        </mxCell>
        <mxCell id="46TvxOgRQQvL3XD7Ghu--33" value="file" style="text;strokeColor=none;fillColor=none;align=left;verticalAlign=top;spacingLeft=4;spacingRight=4;overflow=hidden;rotatable=0;points=[[0,0.5],[1,0.5]];portConstraint=eastwest;whiteSpace=wrap;html=1;" vertex="1" parent="46TvxOgRQQvL3XD7Ghu--32">
          <mxGeometry y="26" width="120" height="26" as="geometry" />
        </mxCell>
        <mxCell id="46TvxOgRQQvL3XD7Ghu--34" style="edgeStyle=orthogonalEdgeStyle;rounded=0;orthogonalLoop=1;jettySize=auto;html=1;" edge="1" parent="1" source="46TvxOgRQQvL3XD7Ghu--35" target="46TvxOgRQQvL3XD7Ghu--16">
          <mxGeometry relative="1" as="geometry" />
        </mxCell>
        <mxCell id="46TvxOgRQQvL3XD7Ghu--35" value="&lt;div&gt;&lt;span style=&quot;background-color: transparent; color: light-dark(rgb(0, 0, 0), rgb(255, 255, 255));&quot;&gt;storage&lt;/span&gt;&lt;/div&gt;" style="whiteSpace=wrap;html=1;" vertex="1" parent="1">
          <mxGeometry x="440" y="480" width="120" height="40" as="geometry" />
        </mxCell>
        <mxCell id="46TvxOgRQQvL3XD7Ghu--36" style="edgeStyle=orthogonalEdgeStyle;rounded=0;orthogonalLoop=1;jettySize=auto;html=1;" edge="1" parent="1" source="46TvxOgRQQvL3XD7Ghu--37" target="46TvxOgRQQvL3XD7Ghu--19">
          <mxGeometry relative="1" as="geometry" />
        </mxCell>
        <mxCell id="46TvxOgRQQvL3XD7Ghu--37" value="SUIP.BIZ" style="whiteSpace=wrap;html=1;" vertex="1" parent="1">
          <mxGeometry x="640" y="560" width="120" height="40" as="geometry" />
        </mxCell>
        <mxCell id="46TvxOgRQQvL3XD7Ghu--38" style="edgeStyle=orthogonalEdgeStyle;rounded=0;orthogonalLoop=1;jettySize=auto;html=1;" edge="1" parent="1" source="46TvxOgRQQvL3XD7Ghu--39" target="46TvxOgRQQvL3XD7Ghu--6">
          <mxGeometry relative="1" as="geometry" />
        </mxCell>
        <mxCell id="46TvxOgRQQvL3XD7Ghu--39" value="&lt;div&gt;&lt;span style=&quot;background-color: transparent; color: light-dark(rgb(0, 0, 0), rgb(255, 255, 255));&quot;&gt;/suip-data/parse&lt;/span&gt;&lt;/div&gt;" style="whiteSpace=wrap;html=1;rounded=0;" vertex="1" parent="1">
          <mxGeometry x="440" y="240" width="120" height="40" as="geometry" />
        </mxCell>
        <mxCell id="46TvxOgRQQvL3XD7Ghu--40" style="edgeStyle=orthogonalEdgeStyle;rounded=0;orthogonalLoop=1;jettySize=auto;html=1;" edge="1" parent="1" source="46TvxOgRQQvL3XD7Ghu--41" target="46TvxOgRQQvL3XD7Ghu--37">
          <mxGeometry relative="1" as="geometry" />
        </mxCell>
        <mxCell id="46TvxOgRQQvL3XD7Ghu--41" value="&lt;div&gt;&lt;span style=&quot;background-color: transparent; color: light-dark(rgb(0, 0, 0), rgb(255, 255, 255));&quot;&gt;suip_data&lt;/span&gt;&lt;/div&gt;" style="whiteSpace=wrap;html=1;" vertex="1" parent="1">
          <mxGeometry x="640" y="480" width="120" height="40" as="geometry" />
        </mxCell>
        <mxCell id="46TvxOgRQQvL3XD7Ghu--42" style="edgeStyle=orthogonalEdgeStyle;rounded=0;orthogonalLoop=1;jettySize=auto;html=1;entryX=0.5;entryY=0;entryDx=0;entryDy=0;" edge="1" parent="1" source="46TvxOgRQQvL3XD7Ghu--45" target="46TvxOgRQQvL3XD7Ghu--35">
          <mxGeometry relative="1" as="geometry" />
        </mxCell>
        <mxCell id="46TvxOgRQQvL3XD7Ghu--43" style="edgeStyle=orthogonalEdgeStyle;rounded=0;orthogonalLoop=1;jettySize=auto;html=1;" edge="1" parent="1" source="46TvxOgRQQvL3XD7Ghu--45" target="46TvxOgRQQvL3XD7Ghu--41">
          <mxGeometry relative="1" as="geometry" />
        </mxCell>
        <mxCell id="46TvxOgRQQvL3XD7Ghu--44" style="edgeStyle=orthogonalEdgeStyle;rounded=0;orthogonalLoop=1;jettySize=auto;html=1;" edge="1" parent="1" source="46TvxOgRQQvL3XD7Ghu--45" target="46TvxOgRQQvL3XD7Ghu--8">
          <mxGeometry relative="1" as="geometry" />
        </mxCell>
        <mxCell id="46TvxOgRQQvL3XD7Ghu--45" value="&lt;b&gt;SERVICE&lt;/b&gt;" style="whiteSpace=wrap;html=1;rounded=0;" vertex="1" parent="1">
          <mxGeometry x="440" y="400" width="120" height="40" as="geometry" />
        </mxCell>
        <mxCell id="46TvxOgRQQvL3XD7Ghu--46" style="edgeStyle=orthogonalEdgeStyle;rounded=0;orthogonalLoop=1;jettySize=auto;html=1;" edge="1" parent="1" source="46TvxOgRQQvL3XD7Ghu--48" target="46TvxOgRQQvL3XD7Ghu--2">
          <mxGeometry relative="1" as="geometry" />
        </mxCell>
        <mxCell id="46TvxOgRQQvL3XD7Ghu--47" style="edgeStyle=orthogonalEdgeStyle;rounded=0;orthogonalLoop=1;jettySize=auto;html=1;" edge="1" parent="1" source="46TvxOgRQQvL3XD7Ghu--48" target="46TvxOgRQQvL3XD7Ghu--39">
          <mxGeometry relative="1" as="geometry" />
        </mxCell>
        <mxCell id="46TvxOgRQQvL3XD7Ghu--48" value="&lt;b&gt;REST-API&lt;/b&gt;" style="whiteSpace=wrap;html=1;rounded=0;" vertex="1" parent="1">
          <mxGeometry x="340" y="120" width="120" height="40" as="geometry" />
        </mxCell>
      </root>
    </mxGraphModel>
  </diagram>
</mxfile>
